<svg xmlns="http://www.w3.org/2000/svg" width="85" height="80.03" viewBox="0 0 85 80.03">
  <g id="Grupo_1112869" data-name="Grupo 1112869" transform="translate(0 -14.969)">
    <rect id="Rect치ngulo_405197" data-name="Rect치ngulo 405197" width="10.651" height="5.326" transform="translate(44.352 48.096) rotate(45)" fill="#d7d7e6"/>
    <path id="Trazado_903029" data-name="Trazado 903029" d="M262.238,56.482l7.543,7.543a3.32,3.32,0,0,0,4.7,0l25.352-25.352a4.788,4.788,0,0,0,0-6.771l-5.467-5.467a4.788,4.788,0,0,0-6.771,0L262.238,51.786A3.32,3.32,0,0,0,262.238,56.482Z" transform="translate(-217.892 -8.392)" fill="#f5a55b"/>
    <path id="Trazado_903030" data-name="Trazado 903030" d="M141.69,265.839,157.127,250.4l-4.707-4.707L132.4,265.713l.125.125Z" transform="translate(-110.42 -192.422)" fill="#d7d7e6"/>
    <rect id="Rect치ngulo_405198" data-name="Rect치ngulo 405198" width="81.68" height="19.922" transform="translate(1.66 73.417)" fill="#f5a55b"/>
    <path id="Trazado_903031" data-name="Trazado 903031" d="M67.189,37.972a1.66,1.66,0,0,0,0-3.32,9.88,9.88,0,0,1-9.869-9.869,6.5,6.5,0,0,1,6.494-6.494A4.112,4.112,0,0,1,67.922,22.4,2.422,2.422,0,0,1,65.5,24.816a1.227,1.227,0,0,1-1.225-1.225.381.381,0,0,1,.381-.381,1.66,1.66,0,0,0,0-3.32,3.705,3.705,0,0,0-3.7,3.7A4.551,4.551,0,0,0,65.5,28.137a5.746,5.746,0,0,0,5.74-5.74,7.436,7.436,0,0,0-7.428-7.428A9.826,9.826,0,0,0,54,24.784,13.2,13.2,0,0,0,67.189,37.972Z" transform="translate(-45.035)"/>
    <path id="Trazado_903032" data-name="Trazado 903032" d="M366.09,168.931a1.661,1.661,0,1,0,.486-1.174A1.673,1.673,0,0,0,366.09,168.931Z" transform="translate(-305.313 -127.017)"/>
    <path id="Trazado_903033" data-name="Trazado 903033" d="M382.419,76.233a1.656,1.656,0,0,0,1.174-.486l5.381-5.381a1.66,1.66,0,1,0-2.348-2.348L381.245,73.4a1.66,1.66,0,0,0,1.174,2.834Z" transform="translate(-317.546 -43.836)"/>
    <path id="Trazado_903034" data-name="Trazado 903034" d="M320.048,138.6a1.656,1.656,0,0,0,1.174-.486l5.381-5.381a1.66,1.66,0,0,0-2.348-2.348l-5.381,5.381a1.66,1.66,0,0,0,1.174,2.834Z" transform="translate(-265.53 -95.853)"/>
    <path id="Trazado_903035" data-name="Trazado 903035" d="M83.34,71.824H35.278L46.706,60.4l.238.238a1.66,1.66,0,0,0,2.348,0l2.79-2.79a4.988,4.988,0,0,0,5.677-.97L83.111,31.522a6.456,6.456,0,0,0,0-9.119l-5.467-5.467a6.456,6.456,0,0,0-9.119,0L43.173,42.287a4.988,4.988,0,0,0-.97,5.677l-2.79,2.79a1.66,1.66,0,0,0,0,2.348l.238.238-8.6,8.6q.07-.711.071-1.44A10.853,10.853,0,0,0,20.277,49.663a8.163,8.163,0,0,0-8.154,8.154,6.26,6.26,0,0,0,6.253,6.253,4.914,4.914,0,0,0,4.909-4.909A3.962,3.962,0,0,0,19.328,55.2a1.66,1.66,0,0,0,0,3.32.639.639,0,0,1,.638.638,1.59,1.59,0,0,1-1.589,1.589,2.936,2.936,0,0,1-2.933-2.933,4.839,4.839,0,0,1,4.834-4.834A7.529,7.529,0,0,1,27.8,60.5a11.333,11.333,0,0,1-11.32,11.32H1.66A1.66,1.66,0,0,0,0,73.484V93.406a1.66,1.66,0,0,0,1.66,1.66H83.34A1.66,1.66,0,0,0,85,93.406V73.484A1.66,1.66,0,0,0,83.34,71.824ZM48.118,57.112l-.237-.237v0l-4.707-4.707h0l-.238-.238,1.418-1.418,5.184,5.184Zm-2.6-12.477L70.873,19.283a3.131,3.131,0,0,1,4.423,0l3.745,3.745L73.45,28.62A1.66,1.66,0,1,0,75.8,30.968l5.5-5.5a3.132,3.132,0,0,1-.534,3.706L55.412,54.526a1.663,1.663,0,0,1-2.348,0l0,0h0l-.406-.406,7.6-7.6a1.66,1.66,0,0,0-2.348-2.348l-7.6,7.6-4.777-4.777h0l0,0h0A1.662,1.662,0,0,1,45.521,44.635ZM44.358,58.048,30.582,71.824H25.863L42,55.688Zm-26.094,17.1L14.209,79.2a2.013,2.013,0,0,1-1.433.593H3.32V75.144ZM3.32,91.746V83.113h9.456a5.312,5.312,0,0,0,3.78-1.566l6.4-6.4h30.97A10.588,10.588,0,0,0,51.9,78.226l-1.57,3.646a7.266,7.266,0,0,1-6.678,4.4H40.863a1.66,1.66,0,1,0,0,3.32h2.791a10.583,10.583,0,0,0,9.728-6.4l1.57-3.646a7.265,7.265,0,0,1,6.678-4.4H81.68v4.98H70.253a1.66,1.66,0,0,0,0,3.32H81.68v8.3Z" transform="translate(0 -0.067)"/>
    <path id="Trazado_903036" data-name="Trazado 903036" d="M198.8,444.031a1.663,1.663,0,1,0,1.172.486A1.677,1.677,0,0,0,198.8,444.031Z" transform="translate(-164.412 -357.831)"/>
    <path id="Trazado_903037" data-name="Trazado 903037" d="M77.923,444.031h-11.1a1.66,1.66,0,0,0,0,3.32h11.1a1.66,1.66,0,0,0,0-3.32Z" transform="translate(-54.349 -357.831)"/>
    <path id="Trazado_903038" data-name="Trazado 903038" d="M162.139,408.691a1.66,1.66,0,0,0-1.66-1.66H147.971a1.66,1.66,0,1,0,0,3.32h12.508A1.66,1.66,0,0,0,162.139,408.691Z" transform="translate(-122.021 -326.974)"/>
    <path id="Trazado_903039" data-name="Trazado 903039" d="M360.466,444.031H349.644a1.66,1.66,0,0,0,0,3.32h10.822a1.66,1.66,0,0,0,0-3.32Z" transform="translate(-290.213 -357.831)"/>
  </g>
</svg>
