<svg xmlns="http://www.w3.org/2000/svg" width="67.949" height="51.887" viewBox="0 0 67.949 51.887">
  <g id="Grupo_1113047" data-name="Grupo 1113047" transform="translate(0 0.001)">
    <path id="Trazado_903295" data-name="Trazado 903295" d="M73.459,8.823V56.067a1.328,1.328,0,0,1-1.327,1.327H8.827A1.328,1.328,0,0,1,7.5,56.067V8.823A1.328,1.328,0,0,1,8.827,7.5h63.3a1.328,1.328,0,0,1,1.327,1.327Zm0,0" transform="translate(-6.505 -6.502)" fill="#717177"/>
    <path id="Trazado_903296" data-name="Trazado 903296" d="M62.947,352.8v2.921H47.55V352.8a1.327,1.327,0,0,1,1.327-1.327H61.62a1.327,1.327,0,0,1,1.327,1.327Zm0,0" transform="translate(-41.24 -304.825)" fill="#e8e6ed"/>
    <path id="Trazado_903297" data-name="Trazado 903297" d="M135.495,352.8v2.921h-4.3a25.079,25.079,0,0,0,.3-4.248h2.671A1.327,1.327,0,0,1,135.495,352.8Zm0,0" transform="translate(-113.787 -304.825)" fill="#d1d0d8"/>
    <path id="Trazado_903298" data-name="Trazado 903298" d="M207.947,301.5v9.729h-15.4V301.5a1.327,1.327,0,0,1,1.327-1.327H206.62a1.328,1.328,0,0,1,1.327,1.327Zm0,0" transform="translate(-166.996 -260.332)" fill="#e8e6ed"/>
    <path id="Trazado_903299" data-name="Trazado 903299" d="M273.628,301.5v9.729h-5.347a28.21,28.21,0,0,0,1.314-11.056H272.3A1.328,1.328,0,0,1,273.628,301.5Zm0,0" transform="translate(-232.677 -260.332)" fill="#d1d0d8"/>
    <path id="Trazado_903300" data-name="Trazado 903300" d="M391.943,8.823V56.067a1.328,1.328,0,0,1-1.327,1.327h-15.9C389.4,44.684,389.076,15.131,388.73,7.5h1.886a1.328,1.328,0,0,1,1.327,1.327Zm0,0" transform="translate(-324.989 -6.502)" fill="#5f5f68"/>
    <path id="Trazado_903301" data-name="Trazado 903301" d="M352.947,250.815V267.27h-15.4V250.815a1.327,1.327,0,0,1,1.327-1.327H351.62a1.328,1.328,0,0,1,1.327,1.327Zm0,0" transform="translate(-292.753 -216.378)" fill="#e8e6ed"/>
    <path id="Trazado_903302" data-name="Trazado 903302" d="M385.183,255.307v16.455H374.718c4.945-4.281,8.189-10.473,10.3-17.095a1.313,1.313,0,0,1,.165.64Zm0,0" transform="translate(-324.989 -220.87)" fill="#d1d0d8"/>
    <path id="Trazado_903303" data-name="Trazado 903303" d="M73.459,8.823v7.038H7.5V8.823A1.328,1.328,0,0,1,8.827,7.5h63.3A1.328,1.328,0,0,1,73.459,8.823Zm0,0" transform="translate(-6.505 -6.502)" fill="#ff5677"/>
    <path id="Trazado_903304" data-name="Trazado 903304" d="M483.5,8.823v7.038H480.34c.108-3.644.03-6.595-.051-8.365h1.886A1.328,1.328,0,0,1,483.5,8.823Zm0,0" transform="translate(-416.549 -6.502)" fill="#ff2953"/>
    <path id="Trazado_903305" data-name="Trazado 903305" d="M62.948,70.527v5.579a1.328,1.328,0,0,1-1.327,1.327H48.878a1.327,1.327,0,0,1-1.327-1.327V70.527Zm0,0" transform="translate(-41.24 -61.168)" fill="#e8e6ed"/>
    <path id="Trazado_903306" data-name="Trazado 903306" d="M110.354,70.527v5.579a1.328,1.328,0,0,1-1.327,1.327h-6.816a12.269,12.269,0,0,0,4.565-6.906Zm0,0" transform="translate(-88.646 -61.168)" fill="#d1d0d8"/>
    <path id="Trazado_903307" data-name="Trazado 903307" d="M62.948,150.772v20.444a1.328,1.328,0,0,1-1.327,1.327H48.878a1.327,1.327,0,0,1-1.327-1.327V150.772a1.327,1.327,0,0,1,1.327-1.327H61.621A1.328,1.328,0,0,1,62.948,150.772Zm0,0" transform="translate(-41.24 -129.612)" fill="#e8e6ed"/>
    <path id="Trazado_903308" data-name="Trazado 903308" d="M118.895,150.772v20.444a1.328,1.328,0,0,1-1.327,1.327h-5.509c3.164-7.382,3.559-18.688,3.586-23.1h1.923A1.328,1.328,0,0,1,118.895,150.772Zm0,0" transform="translate(-97.187 -129.612)" fill="#d1d0d8"/>
    <path id="Trazado_903309" data-name="Trazado 903309" d="M206.617,80.735H193.874a1.327,1.327,0,0,1-1.327-1.327V70.527h15.4v8.881a1.327,1.327,0,0,1-1.327,1.327Zm0,0" transform="translate(-166.993 -61.168)" fill="#e8e6ed"/>
    <path id="Trazado_903310" data-name="Trazado 903310" d="M264.443,70.527v8.881a1.327,1.327,0,0,1-1.327,1.327h-5.425c2.716-3.12,2.558-7.634,2.178-10.208Zm0,0" transform="translate(-223.492 -61.168)" fill="#d1d0d8"/>
    <path id="Trazado_903311" data-name="Trazado 903311" d="M207.948,178.643v9.937a1.327,1.327,0,0,1-1.327,1.327H193.878a1.326,1.326,0,0,1-1.327-1.327v-9.937a1.327,1.327,0,0,1,1.327-1.327h12.743A1.328,1.328,0,0,1,207.948,178.643Zm0,0" transform="translate(-166.997 -153.784)" fill="#e8e6ed"/>
    <path id="Trazado_903312" data-name="Trazado 903312" d="M254.476,178.643v9.937a1.327,1.327,0,0,1-1.327,1.327H246.2c3.646-3.541,4.228-9.526,4.27-12.592h2.681A1.328,1.328,0,0,1,254.476,178.643Zm0,0" transform="translate(-213.525 -153.784)" fill="#d1d0d8"/>
    <path id="Trazado_903313" data-name="Trazado 903313" d="M352.948,70.527V89.072a1.328,1.328,0,0,1-1.327,1.327H338.878a1.327,1.327,0,0,1-1.327-1.327V70.527Zm0,0" transform="translate(-292.753 -61.168)" fill="#e8e6ed"/>
    <path id="Trazado_903314" data-name="Trazado 903314" d="M385.339,70.527V89.072a1.328,1.328,0,0,1-1.327,1.327H374.9c5.907-6.048,6.147-16.242,6.028-19.872Zm0,0" transform="translate(-325.145 -61.168)" fill="#d1d0d8"/>
    <path id="Trazado_903315" data-name="Trazado 903315" d="M65.626,0H54.049a1,1,0,0,0,0,1.991H65.626a.332.332,0,0,1,.332.332V8.364H1.99V2.322a.332.332,0,0,1,.332-.332H49.467a1,1,0,0,0,0-1.991H2.322A2.325,2.325,0,0,0,0,2.322v13.1a1,1,0,0,0,1.991,0v-5.07H5.314v4.584a2.325,2.325,0,0,0,2.322,2.322H20.38A2.325,2.325,0,0,0,22.7,14.939V10.355h1.856V18.24a2.325,2.325,0,0,0,2.322,2.322H39.624a2.325,2.325,0,0,0,2.322-2.322V10.355H43.8V27.9a2.325,2.325,0,0,0,2.322,2.322H58.867A2.325,2.325,0,0,0,61.189,27.9V10.355h4.769v39.21a.332.332,0,0,1-.332.332H61.189V44.258a1,1,0,1,0-1.991,0V49.9H45.792V34.437a.332.332,0,0,1,.332-.332H58.867a.332.332,0,0,1,.332.332v5.4a1,1,0,0,0,1.991,0v-5.4a2.325,2.325,0,0,0-2.322-2.322H46.124A2.325,2.325,0,0,0,43.8,34.437V49.9H41.946V41.163a2.325,2.325,0,0,0-2.322-2.322H26.88a2.325,2.325,0,0,0-2.322,2.322V49.9H22.7V47.971a2.325,2.325,0,0,0-2.322-2.322H7.637a2.325,2.325,0,0,0-2.322,2.322V49.9H2.322a.332.332,0,0,1-.332-.332V20.005a1,1,0,0,0-1.991,0V49.564a2.325,2.325,0,0,0,2.322,2.322h63.3a2.325,2.325,0,0,0,2.322-2.322V2.322A2.325,2.325,0,0,0,65.626,0ZM20.712,14.939a.332.332,0,0,1-.332.332H7.637a.332.332,0,0,1-.332-.332V10.355H20.712Zm19.244,3.3a.332.332,0,0,1-.332.332H26.881a.332.332,0,0,1-.332-.332V10.355H39.956ZM59.2,27.9a.332.332,0,0,1-.332.332H46.124a.332.332,0,0,1-.332-.332V10.355H59.2ZM26.548,41.163a.332.332,0,0,1,.332-.332H39.623a.332.332,0,0,1,.332.332V49.9H26.548ZM7.305,47.971a.332.332,0,0,1,.332-.332H20.38a.332.332,0,0,1,.332.332V49.9H7.305Zm0,0"/>
    <path id="Trazado_903316" data-name="Trazado 903316" d="M40.929,31.516a1,1,0,1,0,0,1.991h.015a1,1,0,0,0,0-1.991Zm0,0" transform="translate(-34.634 -27.334)"/>
    <path id="Trazado_903317" data-name="Trazado 903317" d="M63.57,31.516a1,1,0,0,0,0,1.991h.015a1,1,0,1,0,0-1.991Zm0,0" transform="translate(-54.27 -27.334)"/>
    <path id="Trazado_903318" data-name="Trazado 903318" d="M86.214,31.516a1,1,0,0,0,0,1.991h.015a1,1,0,0,0,0-1.991Zm0,0" transform="translate(-73.91 -27.334)"/>
    <path id="Trazado_903319" data-name="Trazado 903319" d="M445.957,33.506a1,1,0,1,0,0-1.991H444.1a1,1,0,1,0,0,1.991Zm0,0" transform="translate(-384.303 -27.334)"/>
    <path id="Trazado_903320" data-name="Trazado 903320" d="M42.369,167.034H55.112a2.325,2.325,0,0,0,2.322-2.322V144.267a2.325,2.325,0,0,0-2.322-2.322H42.369a2.325,2.325,0,0,0-2.322,2.322v20.444a2.325,2.325,0,0,0,2.322,2.322Zm-.332-22.766a.332.332,0,0,1,.332-.332H55.112a.332.332,0,0,1,.332.332v20.444a.332.332,0,0,1-.332.332H42.369a.332.332,0,0,1-.332-.332Zm0,0" transform="translate(-34.733 -123.108)"/>
    <path id="Trazado_903321" data-name="Trazado 903321" d="M187.369,184.4h12.743a2.325,2.325,0,0,0,2.322-2.322v-9.937a2.325,2.325,0,0,0-2.322-2.322H187.369a2.325,2.325,0,0,0-2.322,2.322v9.937A2.325,2.325,0,0,0,187.369,184.4Zm-.332-12.259a.332.332,0,0,1,.332-.332h12.743a.332.332,0,0,1,.332.332v9.937a.332.332,0,0,1-.332.332H187.369a.332.332,0,0,1-.332-.332Zm0,0" transform="translate(-160.489 -147.28)"/>
  </g>
</svg>
