<svg xmlns="http://www.w3.org/2000/svg" width="41.207" height="60.015" viewBox="0 0 41.207 60.015">
  <g id="Grupo_1113049" data-name="Grupo 1113049" transform="translate(-9 -0.001)">
    <path id="Trazado_903322" data-name="Trazado 903322" d="M42,58a3.631,3.631,0,0,1-2,1c-1.08.12-1.75-.37-2.87-2a2.312,2.312,0,0,0-1.91-1h-.2A2.345,2.345,0,0,0,33,57.18,2.941,2.941,0,0,1,30,59a2.941,2.941,0,0,1-3-1.82A2.345,2.345,0,0,0,24.98,56h-.2a2.312,2.312,0,0,0-1.91,1c-1.12,1.63-1.79,2.12-2.87,2a3.631,3.631,0,0,1-2-1c-2.6-2.46-3.24-9.47-3-13,.12-1.82,1.97-5.18,2-7,.03-2.06-1.86-5.94-2-8a55.319,55.319,0,0,1,.86-8.16,1,1,0,0,1,.99-.84h1.33l7.53,14.4-4.17,7.95-.12.75-1.39,8.72a.981.981,0,0,0,1.67.87l6.38-6.1.55-.53,1.59-3.04,2.27,4.35h.01l3.62,3.11,2.46,2.11h.01l.19.17a1,1,0,0,0,1.64-.87l-.36-3.49-.48-4.75-4.84-9.26,2.83-5.4L42.28,21h.87a1,1,0,0,1,.99.84A55.32,55.32,0,0,1,45,30c-.14,2.06-2.03,5.94-2,8,.03,1.82,1.88,5.18,2,7,.24,3.53-.4,10.54-3,13Z" fill="#02a9f4"/>
    <path id="Trazado_903323" data-name="Trazado 903323" d="M45,45c-.12-1.82-1.97-5.18-2-7-.03-2.06,1.86-5.94,2-8a55.32,55.32,0,0,0-.86-8.16,1,1,0,0,0-.99-.84h-.87l-.98,1.87A46.856,46.856,0,0,1,42,30c-.14,2.06-2.03,5.94-2,8,.03,1.82,1.88,5.18,2,7,.24,3.53-.4,10.54-3,13a4.523,4.523,0,0,1-.633.481A1.973,1.973,0,0,0,40,59a3.631,3.631,0,0,0,2-1C44.6,55.54,45.24,48.53,45,45Z" fill="#0377bc"/>
    <path id="Trazado_903324" data-name="Trazado 903324" d="M40.06,49.4a5.985,5.985,0,0,0-2.17.66,5.9,5.9,0,0,0-1.77,1.42L32.5,48.37a2.489,2.489,0,0,1,3.54-1.86c.01-.03.01-.06.02-.08a2.489,2.489,0,0,1,3.52-1.78Z" fill="#ffe0b2"/>
    <path id="Trazado_903325" data-name="Trazado 903325" d="M33.25,21l-3.02,5.77L27.21,21Z" fill="#02a9f4"/>
    <path id="Trazado_903326" data-name="Trazado 903326" d="M40.42,52.89a1,1,0,0,1-1.64.87l-.19-.17h-.01l-2.46-2.11a5.9,5.9,0,0,1,1.77-1.42,5.985,5.985,0,0,1,2.17-.66Z" fill="#ffe0b2"/>
    <path id="Trazado_903327" data-name="Trazado 903327" d="M30.23,26.77l-2.26,4.31L22.69,21h4.52Z" fill="#ff9801"/>
    <path id="Trazado_903328" data-name="Trazado 903328" d="M27.21,21H22.69l-5.07-9.7v-.01l3.54-1.86Z" fill="#ff9801"/>
    <g id="Grupo_1113048" data-name="Grupo 1113048">
      <path id="Trazado_903329" data-name="Trazado 903329" d="M27.97,31.08v.01L25.71,35.4,18.18,21h4.51Z" fill="#ffdf00"/>
      <path id="Trazado_903330" data-name="Trazado 903330" d="M22.69,21H18.18l-4.1-7.85,3.54-1.86v.01Z" fill="#ffdf00"/>
      <path id="Trazado_903331" data-name="Trazado 903331" d="M21.16,9.43l-7.08,3.72-.82-1.57L12,9.19l7.09-3.72,1.25,2.39Z" fill="#ffdf00"/>
    </g>
    <path id="Trazado_903332" data-name="Trazado 903332" d="M19.09,5.47,12,9.19l-1.77-3.4a2,2,0,0,1,.84-2.7l3.55-1.86a2,2,0,0,1,2.7.84Z" fill="#ef314c"/>
    <path id="Trazado_903333" data-name="Trazado 903333" d="M40.07,49.4h-.01" fill="none" stroke="#000" stroke-linejoin="round" stroke-width="2"/>
    <path id="Trazado_903334" data-name="Trazado 903334" d="M30.528,26.3l7.086,3.713" fill="none" stroke="#000" stroke-linecap="round" stroke-linejoin="round" stroke-width="2"/>
    <path id="Trazado_903335" data-name="Trazado 903335" d="M46.54,12.86,42.28,21H33.25L39.46,9.15Z" fill="#f44335"/>
    <path id="Trazado_903336" data-name="Trazado 903336" d="M39.46,9.15l-.646,1.233L43.54,12.86,39.28,21h3l4.26-8.14Z" fill="#c81e1e"/>
    <path id="Trazado_903337" data-name="Trazado 903337" d="M42.28,21l-4.71,8.99-2.83,5.4-2.26,4.32-.21.4-2.05,3.91-1.59,3.04-.55.53L21.42,44.1l.12-.75,4.17-7.95,2.26-4.31v-.01l2.26-4.31L33.25,21Z" fill="#f44335"/>
    <path id="Trazado_903338" data-name="Trazado 903338" d="M39.28,21l-4.71,8.99-2.83,5.4-2.26,4.32-.21.4-2.05,3.91-1.281,2.448L28.08,47.59l.55-.53,1.59-3.04,2.05-3.91.21-.4,2.26-4.32,2.83-5.4L42.28,21Z" fill="#c81e1e"/>
    <path id="Trazado_903339" data-name="Trazado 903339" d="M39.58,44.65a2.489,2.489,0,0,0-3.52,1.78l-3.79-6.32.21-.4,2.26-4.32Z" fill="#ff9801"/>
    <path id="Trazado_903340" data-name="Trazado 903340" d="M36.06,46.43c-.01.02-.01.05-.02.08a2.489,2.489,0,0,0-3.54,1.86h-.01l-2.27-4.35,2.05-3.91Z" fill="#ffdf00"/>
    <path id="Trazado_903341" data-name="Trazado 903341" d="M48.37,9.37l-1.2,2.29-.63,1.2L39.46,9.15l.63-1.2,1.2-2.29a1,1,0,0,1,1.35-.42l.89.46,3.54,1.86.88.46a1,1,0,0,1,.42,1.35Z" fill="#f44335"/>
    <path id="Trazado_903342" data-name="Trazado 903342" d="M47.95,8.02l-.88-.46L43.53,5.7l-.89-.46a1,1,0,0,0-1.35.42L41.109,6,44.07,7.56l.88.46a1,1,0,0,1,.42,1.35l-1.183,2.257L46.54,12.86l.63-1.2,1.2-2.29a1,1,0,0,0-.42-1.35Z" fill="#c81e1e"/>
    <path id="Trazado_903343" data-name="Trazado 903343" d="M47.17,11.66l-.62,1.2h-.01Z" fill="none" stroke="#000" stroke-linecap="round" stroke-linejoin="round" stroke-width="2"/>
    <path id="Trazado_903344" data-name="Trazado 903344" d="M47.07,7.56,49.09,3.7a1,1,0,0,0-.42-1.35L46.9,1.42a1,1,0,0,0-1.35.42L43.53,5.7Z" fill="#607d8b"/>
    <path id="Trazado_903345" data-name="Trazado 903345" d="M48.67,2.35,46.9,1.42a1,1,0,0,0-1.35.42l-.183.351.3.159a1,1,0,0,1,.42,1.35l-1.37,2.624L47.07,7.56,49.09,3.7a1,1,0,0,0-.42-1.35Z" fill="#37474f"/>
    <path id="Trazado_903346" data-name="Trazado 903346" d="M28.08,47.59l-6.38,6.1a.981.981,0,0,1-1.67-.87l1.39-8.72Z" fill="#607d8b"/>
    <path id="Trazado_903347" data-name="Trazado 903347" d="M28.29,47.7l-.21-.11" fill="none" stroke="#000" stroke-linejoin="round" stroke-width="2"/>
    <path id="Trazado_903348" data-name="Trazado 903348" d="M21.42,44.1l-.21-.11" fill="none" stroke="#000" stroke-linejoin="round" stroke-width="2"/>
    <path id="Trazado_903349" data-name="Trazado 903349" d="M11.116,9.649l2.075,3.968c0,.007.011.011.014.018l3.342,6.392a1.985,1.985,0,0,0-1.672,1.654A53.727,53.727,0,0,0,14,30.067,18.15,18.15,0,0,0,15.013,34,15.813,15.813,0,0,1,16,37.983a13.3,13.3,0,0,1-.96,3.325A14.666,14.666,0,0,0,14,44.932c-.223,3.268.293,10.939,3.31,13.794a4.609,4.609,0,0,0,2.581,1.268c1.669.175,2.658-.756,3.8-2.433A1.3,1.3,0,0,1,24.777,57h.2a1.389,1.389,0,0,1,1.2.76A3.867,3.867,0,0,0,30,60a3.913,3.913,0,0,0,3.863-2.311A1.347,1.347,0,0,1,35.025,57h.2a1.3,1.3,0,0,1,1.08.561c1.052,1.54,1.973,2.455,3.408,2.455a3.58,3.58,0,0,0,.4-.022,4.615,4.615,0,0,0,2.582-1.267c3.01-2.856,3.526-10.527,3.305-13.8a14.666,14.666,0,0,0-1.038-3.624A13.3,13.3,0,0,1,44,37.983,15.813,15.813,0,0,1,44.987,34,18.15,18.15,0,0,0,46,30.067a53.727,53.727,0,0,0-.873-8.386,1.986,1.986,0,0,0-1.262-1.551l3.546-6.772c.008-.012.018-.021.025-.034l1.827-3.487a2,2,0,0,0-.842-2.7l1.554-2.97a1.995,1.995,0,0,0-.838-2.7L47.354.529A2.011,2.011,0,0,0,45.842.4a1.956,1.956,0,0,0-1.178.98L43.105,4.354a2,2,0,0,0-2.7.843L38.576,8.682v.006L32.647,20H27.818L22.052,8.976V8.97L19.975,5,18.2,1.611A3,3,0,0,0,14.15.344L10.607,2.2A3.01,3.01,0,0,0,9.343,6.258Zm8.7-.636L14.5,11.8l-.357-.684L13.352,9.6l5.316-2.791.787,1.506Zm19.632,44-.19-.17a.8.8,0,0,0-.1-.08L37.61,51.434A4.762,4.762,0,0,1,39.2,50.6Zm-2.016-3.84a6.891,6.891,0,0,0-1.349.952l-2.41-2.07a1.424,1.424,0,0,1,.6-.619,1.66,1.66,0,0,1,1.4,0,1,1,0,0,0,1.35-.708,1.664,1.664,0,0,1,.8-1.152,1.421,1.421,0,0,1,.845-.139L39,48.586a6.946,6.946,0,0,0-1.567.589Zm-4.951-7.309L34.3,45.341a3.118,3.118,0,0,0-1.764.946l-1.182-2.265Zm4.4,1.941a3.357,3.357,0,0,0-.814.6l-2.458-4.7,1.132-2.161L37.848,43.5a3.353,3.353,0,0,0-.968.307Zm-9.008,2.546-5.317-2.786L30.91,27.624l5.313,2.783Zm-5.683-.72,4.193,2.2-5.365,5.147Zm14.962-17-5.313-2.784L33.858,22h6.769Zm-9.183.292L24.345,22h2.261L29.1,26.768Zm-1.13,2.156L25.71,33.234,19.834,22h2.253ZM18.789,20,15.43,13.573l1.766-.927L21.042,20ZM43.15,22A49.366,49.366,0,0,1,44,29.933a17.547,17.547,0,0,1-.915,3.442A16.346,16.346,0,0,0,42,38.017,13.648,13.648,0,0,0,43.085,42,13.982,13.982,0,0,1,44,45.068c.26,3.805-.53,10.162-2.69,12.206a2.66,2.66,0,0,1-1.419.732c-.432.045-.8.087-1.939-1.573A3.3,3.3,0,0,0,35.223,55h-.2a3.406,3.406,0,0,0-2.931,1.754A1.953,1.953,0,0,1,30,58a2.007,2.007,0,0,1-2.137-1.32A3.368,3.368,0,0,0,24.975,55h-.2a3.3,3.3,0,0,0-2.731,1.432c-1.134,1.66-1.507,1.62-1.94,1.574a2.653,2.653,0,0,1-1.418-.733c-2.16-2.043-2.95-8.4-2.69-12.205A13.982,13.982,0,0,1,16.915,42,13.648,13.648,0,0,0,18,38.017a16.346,16.346,0,0,0-1.087-4.642A17.548,17.548,0,0,1,16,29.933,49.386,49.386,0,0,1,16.849,22h.729l7,13.4-3.925,7.49a1,1,0,0,0-.1.306l-1.511,9.476A1.981,1.981,0,0,0,20.985,55a2.037,2.037,0,0,0,1.407-.58l6.929-6.63a1.008,1.008,0,0,0,.195-.259l.7-1.344L31.6,48.833a.99.99,0,0,0,.308.35l6.017,5.166c.024.02.048.039.073.057l.135.119a2,2,0,0,0,3.278-1.737l-.84-8.239a1,1,0,0,0-.109-.362l-4.6-8.795,2.451-4.681a.745.745,0,0,0,.245-.468L42.885,22ZM46.435,2.305l1.769.931L46.647,6.21l-1.77-.927Zm-4.261,3.82,5.315,2.784L46.3,11.172c-.005.009-.014.014-.019.023l-.163.312L40.813,8.725l.162-.31ZM39.884,10.5l5.31,2.783L41.673,20H34.9ZM31.6,22l-1.37,2.614L28.863,22Zm-8.3-2-4.332-8.284,1.774-.931L25.561,20ZM11.537,3.975l3.543-1.86a1,1,0,0,1,1.349.423L17.74,5.044l-5.316,2.79-1.309-2.5a1.006,1.006,0,0,1,.422-1.359Z"/>
  </g>
</svg>
