<svg xmlns="http://www.w3.org/2000/svg" xmlns:xlink="http://www.w3.org/1999/xlink" width="72.001" height="72.001" viewBox="0 0 72.001 72.001">
  <defs>
    <clipPath id="clip-path">
      <path id="path2433" d="M0-682.665H72v72H0Z" transform="translate(0 682.665)"/>
    </clipPath>
  </defs>
  <g id="g2427" transform="translate(0 682.665)">
    <g id="g2429" transform="translate(0 -682.665)">
      <g id="g2431" clip-path="url(#clip-path)">
        <g id="g2437" transform="translate(2.728 6.565)">
          <path id="path2439" d="M-380.99-59.4l20.573-6.269a2.109,2.109,0,0,1,2.724,2.018v44.742c0,.928-.607,3.154-1.495,3.424l-21.8,6.644-23.3-7.1-21.624,5.693,1.117-50,19.892-6.061a2.111,2.111,0,0,1,.615-.092Z" transform="translate(425.911 66.4)" fill="#fff9c1"/>
        </g>
        <g id="g2441" transform="translate(1.055 12.718)">
          <path id="path2443" d="M-580.1-367.738l-21.8,6.643v-22.488l-12.4-5.188-10.9-1.918v22.495l-19.145,5.813a1.055,1.055,0,0,1-1.362-1.009V-411.1l-1.3.395a2.109,2.109,0,0,0-1.495,2.018v47.554a2.109,2.109,0,0,0,2.724,2.018l20.573-6.269,22.682,6.912a2.11,2.11,0,0,0,1.23,0l21.188-6.456a2.11,2.11,0,0,0,1.495-2.018v-2.813a2.11,2.11,0,0,1-1.495,2.018" transform="translate(648.494 411.096)" fill="#fbf490"/>
        </g>
        <g id="g2445" transform="translate(24.352 6.565)">
          <path id="path2447" d="M0,0V26.561l23.3,7.106v-5.75L4.021,1.13.615.092A2.116,2.116,0,0,0,0,0" fill="#de5791"/>
        </g>
        <g id="g2449" transform="translate(28.373 7.694)">
          <path id="path2451" d="M-163.485-227.191V-248.1l-19.276-5.873v18.637a2.6,2.6,0,0,0,1.8,2.474Z" transform="translate(182.761 253.978)" fill="#e175a5"/>
        </g>
        <g id="g2453" transform="translate(5.273 27.06)">
          <path id="path2455" d="M-42.158-43.89s-4.688,1.58-4.956,2.487,3.208,2.724,3.208,2.724-1.078,4.833-.376,5.129,4.583-3.522,4.583-3.522,3.881,1.45,4.583.726-.376-4.9-.376-4.9,3.476-3.937,3.208-4.681-4.956.536-4.956.536-1.591-3.927-2.459-3.662-2.459,5.162-2.459,5.162" transform="translate(47.129 49.065)" fill="#f8e837"/>
        </g>
        <g id="g2457" transform="translate(51.868 17.216)">
          <path id="path2459" d="M-42.158-43.89s-4.688,1.58-4.956,2.487,3.208,2.724,3.208,2.724-1.078,4.833-.376,5.129,4.583-3.522,4.583-3.522,3.881,1.45,4.583.726-.376-4.9-.376-4.9,3.476-3.937,3.208-4.681-4.956.536-4.956.536-1.591-3.927-2.459-3.662-2.459,5.162-2.459,5.162" transform="translate(47.129 49.065)" fill="#f8e837"/>
        </g>
        <g id="g2461" transform="translate(1.055 6.565)">
          <path id="path2463" d="M-395.182-463.53v-47.65l-22.682-6.912a2.111,2.111,0,0,0-1.23,0l-21.188,6.456a2.109,2.109,0,0,0-1.494,2.018v47.554a2.109,2.109,0,0,0,2.724,2.018l20.573-6.269L-395.8-459.4a2.111,2.111,0,0,0,1.23,0l21.188-6.456a2.109,2.109,0,0,0,1.495-2.018v-47.554a2.109,2.109,0,0,0-2.724-2.018l-16.354,4.983m-27.516-5.015v10.474m0,4.219v36.051m-14.108-25.776s-4.688,1.58-4.956,2.487,3.208,2.724,3.208,2.724-1.078,4.833-.376,5.13,4.583-3.522,4.583-3.522,3.881,1.45,4.583.726-.376-4.9-.376-4.9,3.476-3.937,3.208-4.681-4.956.536-4.956.536-1.591-3.927-2.459-3.662S-432.587-492.513-432.587-492.513Zm32.377,25.448-13.24-4.039m0-6.328,13.24,4.039m0-6.328-13.24-4.039m23.3,16.695,13.24-4.039m-13.24-2.29,13.24-4.039m-13.24-2.29,13.24-4.039m-18.269-.756-23.3-7.106m28.326,5.572,13.24-4.039m-6.62-17.431c.868-.265,2.459,3.662,2.459,3.662s4.688-1.28,4.956-.536-3.208,4.681-3.208,4.681,1.078,4.176.376,4.9-4.583-.726-4.583-.726-3.881,3.818-4.583,3.522.376-5.13.376-5.13-3.476-1.816-3.208-2.724,4.956-2.487,4.956-2.487S-384.4-507.254-383.533-507.519Z" transform="translate(441.776 518.183)" fill="none" stroke="#000" stroke-linecap="round" stroke-linejoin="round" stroke-miterlimit="10" stroke-width="2"/>
        </g>
      </g>
    </g>
  </g>
</svg>
