<svg xmlns="http://www.w3.org/2000/svg" width="65.15" height="60.697" viewBox="0 0 65.15 60.697">
  <g id="Grupo_1113052" data-name="Grupo 1113052" transform="translate(0 -17.5)">
    <g id="Grupo_1113050" data-name="Grupo 1113050" transform="translate(0.954 18.454)">
      <path id="Trazado_903368" data-name="Trazado 903368" d="M123.076,171.545,87.251,169H77.7l1.441,5.09h42.494Z" transform="translate(-68.767 -150.676)" fill="#4e5a61"/>
      <path id="Trazado_903369" data-name="Trazado 903369" d="M371,169h8.055v2.545H371Z" transform="translate(-324.746 -150.676)" fill="#5f6c75"/>
      <path id="Trazado_903370" data-name="Trazado 903370" d="M129.96,167.5c3.944-3.944,7.328-4.658,7.328-9.112,0-1.649-.856-2.909-2.226-4.767a9.175,9.175,0,0,1-2-6.323V136.273L102.8,135v12.3a9.175,9.175,0,0,0,2,6.323c1.37,1.858,2.226,3.118,2.226,4.767,0,4.454-3.384,5.168-7.328,9.112a7.176,7.176,0,0,0-2.108,5.09l32.5,1.272C129.519,171.489,129.424,168.039,129.96,167.5Z" transform="translate(-86.125 -121.003)" fill="#c9eb74"/>
      <path id="Trazado_903371" data-name="Trazado 903371" d="M131.164,139.211h-2.722a29.545,29.545,0,0,0-2.368,2.108c-.536.536-.442,2.714.132,5.09h-30.3a.868.868,0,0,1-.866-.975,7.178,7.178,0,0,1,2.043-4.115c3.944-3.944,7.328-4.658,7.328-9.112,0-1.649-.856-2.909-2.226-4.767a9.175,9.175,0,0,1-2-6.323V110.089h28.99V105h-30.9v16.118a9.175,9.175,0,0,0,2,6.323c1.37,1.858,2.226,3.118,2.226,4.767,0,4.454-3.384,5.168-7.328,9.112a7.2,7.2,0,0,0,5.09,12.288h30.9C128.825,153.607,131.984,142.607,131.164,139.211Z" transform="translate(-82.179 -94.819)" fill="#abd641"/>
      <circle id="Elipse_11551" data-name="Elipse 11551" cx="7.198" cy="7.198" r="7.198" transform="translate(41.787 44.392)" fill="#7dc03a"/>
      <circle id="Elipse_11552" data-name="Elipse 11552" cx="1.909" cy="1.909" r="1.909" transform="translate(47.077 49.681)" fill="#5f6c75"/>
      <path id="Trazado_903372" data-name="Trazado 903372" d="M120.152,36.452H73.778L75.718,25h42.494Z" transform="translate(-65.344 -25)" fill="#5f6c75"/>
      <path id="Trazado_903373" data-name="Trazado 903373" d="M438.259,25h-4.011l-1.272,22.141s7.049-1.272,9.1-1.272V28.817A3.817,3.817,0,0,0,438.259,25Z" transform="translate(-378.835 -25)" fill="#b9c3cd"/>
      <path id="Trazado_903374" data-name="Trazado 903374" d="M425.52,25h-2.545V48.413h8.465a1.909,1.909,0,0,0,1.909-1.909v-.636H425.52Z" transform="translate(-370.107 -25)" fill="#909ba6"/>
      <path id="Trazado_903375" data-name="Trazado 903375" d="M20.045,25a3.818,3.818,0,0,0-1.108.164c-.106.351-1.436,1.108-1.436,1.108V47.141h6.556L26.6,43.324V25Z" transform="translate(-16.228 -25)" fill="#b9c3cd"/>
      <path id="Trazado_903376" data-name="Trazado 903376" d="M11.954,46.993a1.909,1.909,0,0,1-1.909-1.909V27.4a3.818,3.818,0,0,1,.164-1.108A3.819,3.819,0,0,0,7.5,29.942V47.63a1.909,1.909,0,0,0,1.909,1.909h8.465v-5.09l-2.545,2.545Z" transform="translate(-7.5 -26.125)" fill="#909ba6"/>
    </g>
    <g id="Grupo_1113051" data-name="Grupo 1113051" transform="translate(0 17.5)">
      <path id="Trazado_903377" data-name="Trazado 903377" d="M49.94,78.2h-30.9A8.154,8.154,0,0,1,11.963,66a.954.954,0,0,1,1.656.949,6.246,6.246,0,0,0,5.421,9.343H44.7a8.132,8.132,0,0,1-2.909-6.23h0v-.006h0v-.013h0v-.006h0a8.1,8.1,0,0,1,2.388-5.751,36.218,36.218,0,0,1,3.445-2.971c2.247-1.764,3.6-2.829,3.6-5.466a3.625,3.625,0,0,0-.205-1.2.954.954,0,1,1,1.8-.623,5.5,5.5,0,0,1,.31,1.825c0,2.978-1.334,4.516-3.185,6.05a8.152,8.152,0,0,1-.008,16.3Zm0-1.909A6.244,6.244,0,1,0,43.7,70.034h0v.02h0a6.251,6.251,0,0,0,6.233,6.233h.01Zm0-3.381A2.863,2.863,0,1,1,52.8,70.044,2.866,2.866,0,0,1,49.94,72.907Zm0-3.817a.954.954,0,1,0,.954.954A.955.955,0,0,0,49.94,69.09Zm-34.59-4.48a.954.954,0,0,1-.625-1.675c.707-.613,1.393-1.151,2-1.626,2.247-1.764,3.6-2.829,3.6-5.466,0-1.294-.653-2.321-2.04-4.2a10.1,10.1,0,0,1-2.185-6.89v-1.93H2.863A2.866,2.866,0,0,1,0,39.959V22.272A4.777,4.777,0,0,1,4.772,17.5H50a.954.954,0,0,1,0,1.909H12.282v9.544H30.666a.954.954,0,1,1,0,1.909H18.009V44.752a8.243,8.243,0,0,0,1.812,5.757c1.457,1.975,2.412,3.414,2.412,5.333,0,3.565-1.912,5.067-4.334,6.968-.616.484-1.254.984-1.926,1.567a.95.95,0,0,1-.625.233Zm-3.067-23.7H16.1V37.732H12.282Zm-7.511-21.5a2.866,2.866,0,0,0-2.863,2.863V39.959a.955.955,0,0,0,.954.954h7.511v-21.5Zm7.511,16.415H16.1V30.861H12.282Zm36.9,15.818A10.1,10.1,0,0,1,47,44.752V30.861H34.484a.954.954,0,1,1,0-1.909H52.868v-10.5a.954.954,0,0,1,.954-.954h6.556a4.777,4.777,0,0,1,4.772,4.772V39.959a2.866,2.866,0,0,1-2.863,2.863H48.908v1.93a8.243,8.243,0,0,0,1.812,5.757.954.954,0,1,1-1.536,1.133Zm5.592-10.729h7.511a.955.955,0,0,0,.954-.954V22.272a2.866,2.866,0,0,0-2.863-2.863h-5.6Zm-5.869,0h3.96V37.732h-3.96Zm0-5.09h3.96V30.861h-3.96Zm11.407-4.645a1.018,1.018,0,1,1,1.018-1.018A1.019,1.019,0,0,1,60.315,31.179Zm0-3.817a1.018,1.018,0,1,1,1.018-1.018A1.019,1.019,0,0,1,60.315,27.362Zm0-3.817a1.018,1.018,0,1,1,1.018-1.018A1.019,1.019,0,0,1,60.315,23.544Z" transform="translate(0 -17.5)"/>
    </g>
  </g>
</svg>
