<svg xmlns="http://www.w3.org/2000/svg" width="141.443" height="105.662" viewBox="0 0 141.443 105.662">
  <g id="Grupo_1113046" data-name="Grupo 1113046" transform="translate(0 -64.762)">
    <g id="Grupo_1113041" data-name="Grupo 1113041" transform="translate(2.072 66.834)">
      <g id="Grupo_1113032" data-name="Grupo 1113032">
        <g id="Grupo_1113018" data-name="Grupo 1113018" transform="translate(130.454 16.72)">
          <path id="Trazado_903254" data-name="Trazado 903254" d="M485.184,132.784h-3.252a13.65,13.65,0,0,1-2.212,6.1l.005-.008v78.7h5.459a1.381,1.381,0,0,0,1.381-1.381V134.165A1.381,1.381,0,0,0,485.184,132.784Z" transform="translate(-479.719 -132.784)" fill="#fff"/>
        </g>
        <path id="Trazado_903255" data-name="Trazado 903255" d="M293.036,146.766a20.858,20.858,0,0,1-7.011-1.2l-5.779,4.353.855-6.975a14.677,14.677,0,0,1-6.082-10.164H251.773a8.154,8.154,0,0,0-8.154,8.154v76.645h65.229V138.877C305.757,143.582,299.836,146.766,293.036,146.766Z" transform="translate(-178.39 -116.064)" fill="#fff3de"/>
        <g id="Grupo_1113019" data-name="Grupo 1113019" transform="translate(65.229 16.72)">
          <path id="Trazado_903256" data-name="Trazado 903256" d="M262.928,132.784H251.773a8.154,8.154,0,0,0-8.154,8.154v76.645h11.156V140.938A8.154,8.154,0,0,1,262.928,132.784Z" transform="translate(-243.619 -132.784)" fill="#ffe5c2"/>
        </g>
        <g id="Grupo_1113029" data-name="Grupo 1113029" transform="translate(72.136)">
          <path id="Trazado_903257" data-name="Trazado 903257" d="M311.13,164.858a20.859,20.859,0,0,1-7.011-1.2l-5.779,4.353.855-6.975a16.482,16.482,0,0,1-3.3-3.258H269.866a1.249,1.249,0,0,0-1.247,1.247v17.432h51.417V162.869A20.552,20.552,0,0,1,311.13,164.858Z" transform="translate(-268.619 -134.157)" fill="#ffd15b"/>
          <g id="Grupo_1113020" data-name="Grupo 1113020" transform="translate(0 23.626)">
            <path id="Trazado_903258" data-name="Trazado 903258" d="M279.088,157.784h-9.222a1.249,1.249,0,0,0-1.247,1.247v17.432h9.222V159.031A1.249,1.249,0,0,1,279.088,157.784Z" transform="translate(-268.619 -157.784)" fill="#fdb441"/>
          </g>
          <g id="Grupo_1113021" data-name="Grupo 1113021" transform="translate(24.416)">
            <path id="Trazado_903259" data-name="Trazado 903259" d="M375.095,72.261C365.1,72.261,357,79.134,357,87.612a14.446,14.446,0,0,0,6.16,11.533l-.855,6.975,5.779-4.353a20.86,20.86,0,0,0,7.011,1.2c9.994,0,18.095-6.873,18.095-15.351s-8.1-15.351-18.095-15.351Z" transform="translate(-357 -72.261)" fill="#d8ecfe"/>
          </g>
          <g id="Grupo_1113022" data-name="Grupo 1113022" transform="translate(24.416 1.056)">
            <path id="Trazado_903260" data-name="Trazado 903260" d="M381.725,101.907c-9.994,0-18.095-6.873-18.095-15.351A14.137,14.137,0,0,1,368.5,76.082c-6.732,2.236-11.5,7.792-11.5,14.3a14.446,14.446,0,0,0,6.16,11.533l-.855,6.975,5.779-4.353a20.86,20.86,0,0,0,7.011,1.2,19.663,19.663,0,0,0,13.223-4.877A20.906,20.906,0,0,1,381.725,101.907Z" transform="translate(-357 -76.082)" fill="#c4e2ff"/>
          </g>
          <g id="Grupo_1113023" data-name="Grupo 1113023" transform="translate(23.587 49.212)">
            <path id="Trazado_903261" data-name="Trazado 903261" d="M354,250.4h27.83v18.2H354Z" transform="translate(-354 -250.398)" fill="#fe7701"/>
          </g>
          <g id="Grupo_1113024" data-name="Grupo 1113024" transform="translate(23.587 49.212)">
            <path id="Trazado_903262" data-name="Trazado 903262" d="M354,250.4h9.393v18.2H354Z" transform="translate(-354 -250.398)" fill="#f46700"/>
          </g>
          <g id="Grupo_1113025" data-name="Grupo 1113025" transform="translate(0 74.313)">
            <path id="Trazado_903263" data-name="Trazado 903263" d="M268.619,341.261h51.417v20.3H268.619Z" transform="translate(-268.619 -341.261)" fill="#0593fc"/>
          </g>
          <g id="Grupo_1113026" data-name="Grupo 1113026" transform="translate(0 74.313)">
            <path id="Trazado_903264" data-name="Trazado 903264" d="M268.619,341.261h9.222v20.3h-9.222Z" transform="translate(-268.619 -341.261)" fill="#0182fc"/>
          </g>
          <g id="Grupo_1113027" data-name="Grupo 1113027" transform="translate(0 49.212)">
            <path id="Trazado_903265" data-name="Trazado 903265" d="M268.619,250.4H285.3v18.2H268.619Z" transform="translate(-268.619 -250.398)" fill="#97d729"/>
          </g>
          <g id="Grupo_1113028" data-name="Grupo 1113028" transform="translate(0 49.212)">
            <path id="Trazado_903266" data-name="Trazado 903266" d="M268.619,250.4h9.393v18.2h-9.393Z" transform="translate(-268.619 -250.398)" fill="#8bc727"/>
          </g>
        </g>
        <g id="Grupo_1113030" data-name="Grupo 1113030" transform="translate(0 16.72)">
          <path id="Trazado_903267" data-name="Trazado 903267" d="M72.729,217.582H8.881A1.381,1.381,0,0,1,7.5,216.2V134.165a1.381,1.381,0,0,1,1.381-1.381H64.576a8.154,8.154,0,0,1,8.154,8.154Z" transform="translate(-7.5 -132.784)" fill="#fff3de"/>
        </g>
        <g id="Grupo_1113031" data-name="Grupo 1113031" transform="translate(0 16.72)">
          <path id="Trazado_903268" data-name="Trazado 903268" d="M16.755,216.2V134.165a1.381,1.381,0,0,1,1.381-1.381H8.881A1.381,1.381,0,0,0,7.5,134.165V216.2a1.381,1.381,0,0,0,1.381,1.381h9.255A1.381,1.381,0,0,1,16.755,216.2Z" transform="translate(-7.5 -132.784)" fill="#ffe5c2"/>
        </g>
      </g>
      <g id="Grupo_1113033" data-name="Grupo 1113033" transform="translate(100.639 83.43)">
        <path id="Trazado_903269" data-name="Trazado 903269" d="M371.8,385.443h22.913v-10.05a17.967,17.967,0,0,0-22.913,10.05Z" transform="translate(-371.796 -374.261)" fill="#97d729"/>
      </g>
      <g id="Grupo_1113034" data-name="Grupo 1113034" transform="translate(100.639 83.43)">
        <path id="Trazado_903270" data-name="Trazado 903270" d="M393.017,374.858A17.954,17.954,0,0,0,371.8,385.443h9.189A18,18,0,0,1,393.017,374.858Z" transform="translate(-371.796 -374.261)" fill="#8bc727"/>
      </g>
      <g id="Grupo_1113040" data-name="Grupo 1113040" transform="translate(6.906 23.626)">
        <g id="Grupo_1113035" data-name="Grupo 1113035">
          <path id="Trazado_903271" data-name="Trazado 903271" d="M32.5,157.784H58.606v18.679H32.5Z" transform="translate(-32.5 -157.784)" fill="#fd4755"/>
        </g>
        <g id="Grupo_1113036" data-name="Grupo 1113036">
          <path id="Trazado_903272" data-name="Trazado 903272" d="M32.5,157.784h9.393v18.679H32.5Z" transform="translate(-32.5 -157.784)" fill="#fb2b3a"/>
        </g>
        <g id="Grupo_1113037" data-name="Grupo 1113037" transform="translate(33.013)">
          <path id="Trazado_903273" data-name="Trazado 903273" d="M152,176.463h18.4V159.031a1.249,1.249,0,0,0-1.247-1.247H152Z" transform="translate(-152 -157.784)" fill="#0593fc"/>
        </g>
        <g id="Grupo_1113038" data-name="Grupo 1113038" transform="translate(33.013)">
          <path id="Trazado_903274" data-name="Trazado 903274" d="M152,157.784h9.393v18.679H152Z" transform="translate(-152 -157.784)" fill="#0182fc"/>
        </g>
        <path id="Trazado_903275" data-name="Trazado 903275" d="M32.5,250.4v18.2h6.494l-.111-.134a.951.951,0,0,1,.5-1.527l5.6-1.443a.951.951,0,0,0,.712-.98l-.356-5.768a.951.951,0,0,1,1.3-.944L52,259.919a.951.951,0,0,0,1.152-.374l3.1-4.876a.951.951,0,0,1,1.605,0l3.1,4.876a.951.951,0,0,0,1.152.374l5.375-2.121a.951.951,0,0,1,1.3.944l-.356,5.768a.951.951,0,0,0,.712.98l5.6,1.443a.951.951,0,0,1,.5,1.527l-.111.134h8.788V250.4Z" transform="translate(-32.5 -224.813)" fill="#97d729"/>
        <g id="Grupo_1113039" data-name="Grupo 1113039" transform="translate(0 25.585)">
          <path id="Trazado_903276" data-name="Trazado 903276" d="M32.5,250.4h9.255v18.2H32.5Z" transform="translate(-32.5 -250.398)" fill="#8bc727"/>
        </g>
        <path id="Trazado_903277" data-name="Trazado 903277" d="M46.629,355.007a.951.951,0,0,1-1.3-.944l.356-5.768a.951.951,0,0,0-.712-.98l-5.6-1.443a.951.951,0,0,1-.5-1.527l2.546-3.084H32.5v20.3H49.766v-7.791Z" transform="translate(-32.5 -290.574)" fill="#fff"/>
        <path id="Trazado_903278" data-name="Trazado 903278" d="M39.379,345.873a.951.951,0,0,1-.5-1.527l2.546-3.084H32.5v20.3h9.393V346.521Z" transform="translate(-32.5 -290.575)" fill="#eaf6ff"/>
        <path id="Trazado_903279" data-name="Trazado 903279" d="M136.021,341.261l2.546,3.084a.951.951,0,0,1-.5,1.527l-5.6,1.443a.951.951,0,0,0-.712.98l.356,5.768a.951.951,0,0,1-1.3.944l-5.375-2.121a.951.951,0,0,0-1.152.374l-3.1,4.876a.947.947,0,0,1-1.192.352v3.071h27.244v-20.3Z" transform="translate(-95.828 -290.574)" fill="#fd4755"/>
        <path id="Trazado_903280" data-name="Trazado 903280" d="M125.446,383.166a.951.951,0,0,0-1.152.374l-3.1,4.876a.947.947,0,0,1-1.192.353v3.071h9.393v-7.116Z" transform="translate(-95.828 -320.854)" fill="#fb2b3a"/>
      </g>
    </g>
    <g id="Grupo_1113044" data-name="Grupo 1113044" transform="translate(15.143 119.875)">
      <g id="Grupo_1113042" data-name="Grupo 1113042" transform="translate(0)">
        <path id="Trazado_903281" data-name="Trazado 903281" d="M74.016,264.7l3.1,4.876a.951.951,0,0,0,1.152.374l5.375-2.121a.951.951,0,0,1,1.3.944l-.356,5.768a.951.951,0,0,0,.712.98l5.6,1.443a.951.951,0,0,1,.5,1.527l-3.679,4.457a.951.951,0,0,0,0,1.211l3.679,4.457a.951.951,0,0,1-.5,1.527l-5.6,1.443a.951.951,0,0,0-.712.98l.356,5.768a.951.951,0,0,1-1.3.944l-5.375-2.121a.951.951,0,0,0-1.152.374l-3.1,4.876a.951.951,0,0,1-1.605,0l-3.1-4.876a.952.952,0,0,0-1.152-.374l-5.375,2.121a.951.951,0,0,1-1.3-.944l.356-5.768a.951.951,0,0,0-.712-.98l-5.6-1.443a.951.951,0,0,1-.5-1.527l3.679-4.457a.951.951,0,0,0,0-1.211l-3.679-4.457a.951.951,0,0,1,.5-1.527l5.6-1.443a.951.951,0,0,0,.712-.98l-.356-5.768a.951.951,0,0,1,1.3-.944l5.375,2.121a.951.951,0,0,0,1.152-.374l3.1-4.876A.951.951,0,0,1,74.016,264.7Z" transform="translate(-54.817 -264.261)" fill="#ffd15b"/>
      </g>
      <g id="Grupo_1113043" data-name="Grupo 1113043" transform="translate(0 3.502)">
        <path id="Trazado_903282" data-name="Trazado 903282" d="M65.364,288.834A20.626,20.626,0,0,1,67.842,279l-5.062-2a.951.951,0,0,0-1.3.944l.356,5.768a.951.951,0,0,1-.712.98l-5.6,1.443a.951.951,0,0,0-.5,1.527l3.679,4.457a.952.952,0,0,1,0,1.211l-3.679,4.457a.951.951,0,0,0,.5,1.527l5.6,1.443a.951.951,0,0,1,.712.98l-.356,5.768a.951.951,0,0,0,1.3.944l5.375-2.121a.951.951,0,0,1,1.152.374l3.1,4.876a.951.951,0,0,0,1.605,0l2.712-4.263A20.715,20.715,0,0,1,65.364,288.834Z" transform="translate(-54.816 -276.938)" fill="#fdb441"/>
      </g>
    </g>
    <g id="Grupo_1113045" data-name="Grupo 1113045" transform="translate(0 64.762)">
      <path id="Trazado_903283" data-name="Trazado 903283" d="M199.147,81.482h-1.126c-.429-9.282-9.3-16.72-20.146-16.72s-19.717,7.438-20.146,16.72H136.611a10.215,10.215,0,0,0-8.154,4.063,10.215,10.215,0,0,0-8.154-4.063H86.572a2.072,2.072,0,1,0,0,4.144H120.3a6.089,6.089,0,0,1,6.082,6.082V166.28h-9.7a2.072,2.072,0,0,0,0,4.144h82.463a3.457,3.457,0,0,0,3.453-3.453V84.935A3.457,3.457,0,0,0,199.147,81.482Zm-35.1,21.005a2.072,2.072,0,0,0,2.283-.139l4.915-3.7a23.233,23.233,0,0,0,13.462-.07v8.491H137.436V92.532h24.215a18.44,18.44,0,0,0,2.091,2.084l-.714,5.825a2.072,2.072,0,0,0,1.02,2.047Zm27.566,63.793H130.53V91.707a6.089,6.089,0,0,1,6.082-6.082H158.1a15.644,15.644,0,0,0,.928,2.763H136.611a3.323,3.323,0,0,0-3.319,3.319v17.432a2.072,2.072,0,0,0,2.072,2.072H186.78a2.072,2.072,0,0,0,2.072-2.072V96.788a20.182,20.182,0,0,0,2.763-1.867V166.28Zm-13.74-70.817a18.723,18.723,0,0,1-6.314-1.075,2.072,2.072,0,0,0-1.943.3L167.735,96.1,168,93.97a2.072,2.072,0,0,0-.818-1.913,12.429,12.429,0,0,1-5.326-9.872c0-7.322,7.188-13.279,16.023-13.279S193.9,74.862,193.9,82.184,186.71,95.463,177.875,95.463Zm20.581,70.817h-2.7V90.221a15.807,15.807,0,0,0,1.885-4.6h.811Z" transform="translate(-61.156 -64.762)"/>
      <path id="Trazado_903284" data-name="Trazado 903284" d="M376.4,242.9h-27.83a2.072,2.072,0,0,0-2.072,2.072v18.2a2.072,2.072,0,0,0,2.072,2.072H376.4a2.072,2.072,0,0,0,2.072-2.072v-18.2A2.072,2.072,0,0,0,376.4,242.9Zm-2.072,18.2H350.644V247.041H374.33Z" transform="translate(-250.777 -193.686)"/>
      <path id="Trazado_903285" data-name="Trazado 903285" d="M263.191,265.236h16.681a2.072,2.072,0,0,0,2.072-2.072v-18.2a2.072,2.072,0,0,0-2.072-2.072H263.191a2.072,2.072,0,0,0-2.072,2.072v18.2A2.072,2.072,0,0,0,263.191,265.236Zm2.072-18.2H277.8v14.051H265.263Z" transform="translate(-188.983 -193.686)"/>
      <path id="Trazado_903286" data-name="Trazado 903286" d="M45.859,210.082H4.144V129.428h11.6a2.072,2.072,0,0,0,0-4.144H3.453A3.457,3.457,0,0,0,0,128.737v82.036a3.457,3.457,0,0,0,3.453,3.453H45.859a2.072,2.072,0,0,0,0-4.144Z" transform="translate(0 -108.564)"/>
      <path id="Trazado_903287" data-name="Trazado 903287" d="M314.608,333.761h-8.492a2.072,2.072,0,0,0,0,4.144h6.42v5.423a20.013,20.013,0,0,0-22.179,10.732H265.263V337.9h31.184a2.072,2.072,0,1,0,0-4.144H263.191a2.072,2.072,0,0,0-2.072,2.072v20.3a2.072,2.072,0,0,0,2.072,2.072h51.417a2.072,2.072,0,0,0,2.072-2.072v-20.3A2.072,2.072,0,0,0,314.608,333.761Zm-2.072,20.3h-17.41a15.909,15.909,0,0,1,17.409-6.473v6.473Z" transform="translate(-188.983 -259.448)"/>
      <path id="Trazado_903288" data-name="Trazado 903288" d="M402.976,106.828h-17.4a2.072,2.072,0,0,0,0,4.144h17.4a2.072,2.072,0,0,0,0-4.144Z" transform="translate(-277.556 -95.207)"/>
      <path id="Trazado_903289" data-name="Trazado 903289" d="M405.214,133.828H390.572a2.072,2.072,0,1,0,0,4.144h14.642a2.072,2.072,0,0,0,0-4.144Z" transform="translate(-281.174 -114.748)"/>
      <path id="Trazado_903290" data-name="Trazado 903290" d="M53.178,150.284H27.072A2.072,2.072,0,0,0,25,152.356v18.679a2.072,2.072,0,0,0,2.072,2.072H53.178a2.072,2.072,0,0,0,2.072-2.072V152.356A2.072,2.072,0,0,0,53.178,150.284Zm-2.072,18.679H29.144V154.428H51.106Z" transform="translate(-18.094 -126.658)"/>
      <path id="Trazado_903291" data-name="Trazado 903291" d="M164.976,173.106a2.072,2.072,0,0,0,2.072-2.072V153.6a3.323,3.323,0,0,0-3.319-3.319H146.572a2.072,2.072,0,0,0-2.072,2.072v18.679a2.072,2.072,0,0,0,2.072,2.072Zm-16.332-18.679H162.9v14.535h-14.26Z" transform="translate(-104.581 -126.657)"/>
      <path id="Trazado_903292" data-name="Trazado 903292" d="M25,244.969v18.2a2.072,2.072,0,0,0,2.072,2.072H32.59L34.87,268h-7.8A2.072,2.072,0,0,0,25,270.071v20.3a2.072,2.072,0,0,0,2.072,2.072H44.338a2.072,2.072,0,0,0,2.072-2.072v-6.381l.067-.027,2.605,4.1c.028.043.061.082.09.123v2.188a2.072,2.072,0,0,0,2.072,2.072H78.489a2.072,2.072,0,0,0,2.072-2.072v-20.3A2.072,2.072,0,0,0,78.489,268H68.4l2.28-2.763h7.811a2.072,2.072,0,0,0,2.072-2.072v-18.2a2.072,2.072,0,0,0-2.072-2.072H27.072A2.072,2.072,0,0,0,25,244.969ZM42.266,288.3H29.144V272.143h2.491a3.023,3.023,0,0,0,1.8,4.545l4.7,1.212-.3,4.845a3.023,3.023,0,0,0,4.128,3l.3-.12V288.3Zm27.567-11.609a3.023,3.023,0,0,0,1.8-4.545h4.785V288.3H54.01c.061-.078.121-.156.175-.24l2.605-4.1,4.515,1.782a3.023,3.023,0,0,0,4.127-3l-.3-4.845Zm6.583-29.647v14.052H71.79a3.005,3.005,0,0,0-1.957-1.6l-4.7-1.212.3-4.845a3.023,3.023,0,0,0-4.128-3l-4.515,1.782-2.605-4.1a3.013,3.013,0,0,0-1.217-1.087h23.45ZM53.79,255.227a3.028,3.028,0,0,0,3.661,1.19l3.737-1.475-.248,4.01a3.028,3.028,0,0,0,2.263,3.114l3.89,1-2.558,3.1a3.028,3.028,0,0,0,0,3.849l2.558,3.1-3.89,1a3.028,3.028,0,0,0-2.263,3.114l.248,4.01-3.737-1.475a3.028,3.028,0,0,0-3.661,1.189l-2.156,3.39-2.156-3.39a3.026,3.026,0,0,0-3.661-1.19l-3.737,1.475.248-4.01a3.028,3.028,0,0,0-2.263-3.114l-3.89-1,2.558-3.1a3.028,3.028,0,0,0,0-3.849l-2.558-3.1,3.89-1a3.028,3.028,0,0,0,2.263-3.114l-.248-4.01,3.737,1.475a3.027,3.027,0,0,0,3.661-1.189l2.156-3.39Zm-24.646-8.187H50.3a3.011,3.011,0,0,0-1.217,1.087l-2.605,4.1-4.515-1.782a3.023,3.023,0,0,0-4.127,3l.3,4.845-4.7,1.212a3.006,3.006,0,0,0-1.956,1.6H29.144Z" transform="translate(-18.094 -193.686)"/>
      <path id="Trazado_903293" data-name="Trazado 903293" d="M92.408,314.673a2.072,2.072,0,0,0,2.072,2.072h11.879a2.072,2.072,0,1,0,0-4.144H94.48A2.072,2.072,0,0,0,92.408,314.673Z" transform="translate(-66.88 -244.134)"/>
      <path id="Trazado_903294" data-name="Trazado 903294" d="M106.359,340.6H94.48a2.072,2.072,0,0,0,0,4.144h11.879a2.072,2.072,0,0,0,0-4.144Z" transform="translate(-66.88 -264.399)"/>
    </g>
  </g>
</svg>
