<svg xmlns="http://www.w3.org/2000/svg" width="56" height="67.19" viewBox="0 0 56 67.19">
  <g id="Page-1" transform="translate(0.007)">
    <g id="_070---Art-Book" data-name="070---Art-Book" transform="translate(-0.007)">
      <g id="Icons" transform="translate(1.12 1.12)">
        <path id="Shape" d="M54.752,2.24V45.913c0,1.232-1.008,3.36-2.24,3.36H6.6a5.6,5.6,0,0,0-5.6,5.6V5.6A5.6,5.6,0,0,1,6.6,0H52.513A2.24,2.24,0,0,1,54.752,2.24Z" transform="translate(-0.992)" fill="#ffdc00"/>
        <path id="Shape-2" data-name="Shape" d="M47.36,0H44a2.24,2.24,0,0,1,2.24,2.24V45.913c0,1.232-1.008,3.36-2.24,3.36h3.36c1.232,0,2.24-2.128,2.24-3.36V2.24A2.24,2.24,0,0,0,47.36,0Z" transform="translate(4.161)" fill="#fec108"/>
        <path id="Shape-3" data-name="Shape" d="M51.394,55.2h-28V49.6H12.2v5.6H6.835A5.767,5.767,0,0,1,1,50.148,4.591,4.591,0,0,1,1,49.6,5.6,5.6,0,0,1,6.6,44H51.394c-1.859,0-3.36,2.508-3.36,5.6s1.5,5.6,3.36,5.6Z" transform="translate(-0.993 5.273)" fill="#ffeb3a"/>
        <path id="Shape-4" data-name="Shape" d="M49.719,41V53.318a2.24,2.24,0,0,1-2.24,2.24H46.36c-1.859,0-3.36-2.508-3.36-5.6s1.5-5.6,3.36-5.6h1.12C48.711,44.36,49.719,42.232,49.719,41Z" transform="translate(4.041 4.913)" fill="#ff9801"/>
        <path id="Shape-5" data-name="Shape" d="M47.24,44.36H46.12v8.959A2.24,2.24,0,0,1,45,55.233a2.307,2.307,0,0,0,1.12.325h1.12a2.24,2.24,0,0,0,2.24-2.24V41C49.479,42.232,48.472,44.36,47.24,44.36Z" transform="translate(4.281 4.913)" fill="#f57c00"/>
        <path id="Shape-6" data-name="Shape" d="M22.2,49v8.959a1.12,1.12,0,0,1-1.691.963l-3.36-2a1.12,1.12,0,0,0-1.12,0l-3.36,2A1.12,1.12,0,0,1,11,57.959V49Z" transform="translate(0.207 5.872)" fill="#9d27b0"/>
        <path id="Shape-7" data-name="Shape" d="M41.022,38.364A24.636,24.636,0,0,1,29.712,41,26.439,26.439,0,0,1,17.2,37.849a2.24,2.24,0,0,1,.952-4.177,7.839,7.839,0,0,0,3.416-.784A2.542,2.542,0,0,0,22.8,30.156a3.248,3.248,0,0,0-2.4-1.971,27.179,27.179,0,0,0-6.114-.392,3.36,3.36,0,0,1-3-4.715C13.9,17.4,21.19,13,29.712,13a25.465,25.465,0,0,1,8.32,1.355,8.511,8.511,0,0,0,2.083,3.124Z" transform="translate(0.207 1.558)" fill="sienna"/>
        <ellipse id="Oval" cx="3.919" cy="2.8" rx="3.919" ry="2.8" transform="translate(20.165 20.157)" fill="#ffdc00"/>
        <path id="Shape-8" data-name="Shape" d="M43.719,17l-.392,8.959H37.392L37,17Z" transform="translate(3.322 2.037)" fill="#9d27b0"/>
        <path id="Shape-9" data-name="Shape" d="M43.285,25l-.627,14.558a2.34,2.34,0,0,1-4.681,0l-.112-2.632L37.35,25Z" transform="translate(3.364 2.996)" fill="#02a9f4"/>
        <path id="Shape-10" data-name="Shape" d="M43.978,18.555H37.259a8.511,8.511,0,0,1-2.083-3.124c-1.691-4.86,3.438-9.194,6.2-11.2a1.12,1.12,0,0,1,1.769.817c.6,6.887,5.308,5.666.829,13.505Z" transform="translate(3.064 0.482)" fill="#ffeb3a"/>
        <circle id="Oval-2" data-name="Oval" cx="2.8" cy="2.8" r="2.8" transform="translate(26.884 32.475)" fill="#e91e63"/>
        <path id="Shape-11" data-name="Shape" d="M38.15,31.309a2.788,2.788,0,1,1-.134-3.192Z" transform="translate(2.844 3.238)" fill="#60a917"/>
      </g>
      <g id="Icons_copy">
        <path id="Shape-12" data-name="Shape" d="M53.633,0H7.72A6.719,6.719,0,0,0,1,6.719V55.992a6.517,6.517,0,0,0,0,.661,6.921,6.921,0,0,0,6.954,6.058H12.2v2.24a2.24,2.24,0,0,0,1.12,1.949,2.341,2.341,0,0,0,1.12.291,2.173,2.173,0,0,0,1.12-.325l3.36-1.993,3.36,1.993a2.24,2.24,0,0,0,3.36-1.915v-2.24h28a3.36,3.36,0,0,0,3.36-3.36V3.36A3.36,3.36,0,0,0,53.633,0ZM23.4,64.951l-3.36-2a2.24,2.24,0,0,0-2.307,0l-3.292,2V57.112H23.4Zm2.24-7.839H29a1.12,1.12,0,1,0,0-2.24H9.96a1.12,1.12,0,1,0,0,2.24H12.2v3.36H7.955a4.659,4.659,0,0,1-4.715-4.054v-.426A4.479,4.479,0,0,1,7.72,51.513H49.154a9.519,9.519,0,0,0,0,8.959H25.637Zm28,3.36h-1.12c-1.053,0-2.24-1.915-2.24-4.479s1.187-4.479,2.24-4.479h1.12a2.24,2.24,0,0,0,1.12-.3v8.141A1.12,1.12,0,0,1,53.633,60.471Zm0-11.2H9.96v-1.12a1.12,1.12,0,0,0-2.24,0v1.12A6.719,6.719,0,0,0,3.241,51V6.719A4.479,4.479,0,0,1,7.72,2.24V3.36a1.12,1.12,0,1,0,2.24,0V2.24H53.633a1.12,1.12,0,0,1,1.12,1.12V47.033A3.024,3.024,0,0,1,53.633,49.273Z" transform="translate(-0.993)"/>
        <path id="Shape-13" data-name="Shape" d="M8.12,6A1.12,1.12,0,0,0,7,7.12V9.36a1.12,1.12,0,1,0,2.24,0V7.12A1.12,1.12,0,0,0,8.12,6Z" transform="translate(-0.273 0.719)"/>
        <path id="Shape-14" data-name="Shape" d="M8.12,12A1.12,1.12,0,0,0,7,13.12v2.24a1.12,1.12,0,0,0,2.24,0V13.12A1.12,1.12,0,0,0,8.12,12Z" transform="translate(-0.273 1.438)"/>
        <path id="Shape-15" data-name="Shape" d="M8.12,18A1.12,1.12,0,0,0,7,19.12v2.24a1.12,1.12,0,0,0,2.24,0V19.12A1.12,1.12,0,0,0,8.12,18Z" transform="translate(-0.273 2.157)"/>
        <path id="Shape-16" data-name="Shape" d="M8.12,24A1.12,1.12,0,0,0,7,25.12v2.24a1.12,1.12,0,0,0,2.24,0V25.12A1.12,1.12,0,0,0,8.12,24Z" transform="translate(-0.273 2.876)"/>
        <path id="Shape-17" data-name="Shape" d="M8.12,30A1.12,1.12,0,0,0,7,31.12v2.24a1.12,1.12,0,0,0,2.24,0V31.12A1.12,1.12,0,0,0,8.12,30Z" transform="translate(-0.273 3.595)"/>
        <path id="Shape-18" data-name="Shape" d="M8.12,36A1.12,1.12,0,0,0,7,37.12v2.24a1.12,1.12,0,1,0,2.24,0V37.12A1.12,1.12,0,0,0,8.12,36Z" transform="translate(-0.273 4.314)"/>
        <path id="Shape-19" data-name="Shape" d="M29.079,21.919c0-2.24-2.24-3.919-5.039-3.919S19,19.725,19,21.919s2.24,3.919,5.039,3.919S29.079,24.114,29.079,21.919ZM24.039,23.6c-1.68,0-2.8-.885-2.8-1.68s1.12-1.68,2.8-1.68,2.8.885,2.8,1.68S25.719,23.6,24.039,23.6Z" transform="translate(1.165 2.157)"/>
        <path id="Shape-20" data-name="Shape" d="M49.825,10.876a10.862,10.862,0,0,1-1.579-4.827,2.24,2.24,0,0,0-3.561-1.613c-4.379,3.214-6.719,6.45-6.954,9.619a4.9,4.9,0,0,0,0,.907,26.809,26.809,0,0,0-6.9-.885c-8.533,0-16.473,4.479-19.44,10.784a4.356,4.356,0,0,0,.28,4.121,4.479,4.479,0,0,0,3.707,2.128h1.579a17.268,17.268,0,0,1,4.278.347,2.24,2.24,0,0,1,1.613,1.12,1.456,1.456,0,0,1-.739,1.489,6.462,6.462,0,0,1-2.688.594h-.235a3.36,3.36,0,0,0-3.057,2.654,3.27,3.27,0,0,0,1.657,3.628,27.4,27.4,0,0,0,13.046,3.371A26.327,26.327,0,0,0,41.1,42.287v.963a3.46,3.46,0,1,0,6.921,0l1.053-23.259c2.777-4.972,2.094-6.719.75-9.115Zm-9.16,21.546.112,2.4a1.713,1.713,0,0,1-1.221.538,1.68,1.68,0,1,1,1.12-2.934ZM42.355,20.8h4.479l-.291,6.719H42.691Zm-2.441-6.573c.2-1.713,1.321-4.479,6.1-7.984a12.822,12.822,0,0,0,1.859,5.722c.974,1.736,1.523,2.732-.582,6.585h-5.6a5.7,5.7,0,0,1-1.736-4.323Zm-9.082,27.85a25.521,25.521,0,0,1-11.993-3,1.109,1.109,0,0,1,.5-2.083h.235a8.119,8.119,0,0,0,3.74-.952A3.673,3.673,0,0,0,25,32a4.289,4.289,0,0,0-3.192-2.744,19.194,19.194,0,0,0-4.849-.414H15.479a2.24,2.24,0,0,1-1.87-1.12,2.072,2.072,0,0,1-.146-2c2.564-5.6,9.72-9.474,17.4-9.474a24.513,24.513,0,0,1,7.492,1.12,9.8,9.8,0,0,0,1.758,2.777l.426,9.765a3.785,3.785,0,0,0-1.008-.146,3.919,3.919,0,1,0,1.321,7.581l.112,2.531a23.517,23.517,0,0,1-10.135,2.206Zm13.763,2.24a1.232,1.232,0,0,1-1.221-1.12l-.582-13.438H46.4l-.582,13.438A1.232,1.232,0,0,1,44.595,44.314Z" transform="translate(0.207 0.479)"/>
        <path id="Shape-21" data-name="Shape" d="M28.919,29a3.919,3.919,0,1,0,3.919,3.919A3.919,3.919,0,0,0,28.919,29Zm0,5.6a1.68,1.68,0,1,1,1.68-1.68A1.68,1.68,0,0,1,28.919,34.6Z" transform="translate(1.885 3.475)"/>
      </g>
    </g>
  </g>
</svg>
